<svg width="18" height="18" fill="none" xmlns="http://www.w3.org/2000/svg"><path fill-rule="evenodd" clip-rule="evenodd" d="M12.605 15.233l-1.034-.85-.053.04c-.878.666-1.96 1.003-3.22 1.003-1.36 0-2.57-.45-3.5-1.303-1.288-1.18-1.288-2.477-1.287-4.83v-.2c0-2.354 0-3.65 1.286-4.83C5.741 3.398 6.92 2.96 8.3 2.96c3.073 0 4.518 1.957 4.847 3.792 0 .003.068.298.102.537.03.204.039.451.041.576h-1.92c0-.13-.005-.394-.04-.644a8.204 8.204 0 00-.095-.506C10.873 5.28 9.83 4.49 8.299 4.49c-.8 0-1.55.289-2.058.792-.684.681-.842 1.412-.842 3.911 0 2.513.158 3.247.842 3.928.497.493 1.247.775 2.058.775.7 0 1.342-.19 1.856-.547l.087-.06-1.172-.965 1.106-1.264 1.001.824.028-.135c.046-.232.07-.48.07-.76v-.454h1.888v.053c0 1.068-.144 1.829-.465 2.467l-.029.056 1.042.857-1.106 1.265zM8.61.693a8.5 8.5 0 100 17 8.5 8.5 0 000-17z" fill="#103D97"/></svg>