<svg width="20" height="21" fill="none" xmlns="http://www.w3.org/2000/svg"><path fill-rule="evenodd" clip-rule="evenodd" d="M19.126 6.99a.874.874 0 01-.874-.873V2.983l-4.625 4.625a.874.874 0 01-1.235-1.235l4.625-4.625h-3.134a.874.874 0 110-1.748h5.243A.871.871 0 0120 .874v5.243a.874.874 0 01-.874.874zm0 10.413a2.622 2.622 0 01-2.873 2.62 18.157 18.157 0 01-7.915-2.814 17.904 17.904 0 01-5.508-5.505A18.18 18.18 0 01.01 3.73 2.621 2.621 0 012.62.874h2.613a2.623 2.623 0 012.622 2.262c.102.774.291 1.533.563 2.263.36.958.13 2.037-.593 2.769l-.626.626a13.107 13.107 0 004.007 4.007l.63-.63a2.62 2.62 0 012.764-.59c.73.273 1.49.462 2.272.565a2.621 2.621 0 012.254 2.649v2.608zm-2.49-3.526c.43.061.754.443.742.908v2.621a.876.876 0 01-.952.878 16.406 16.406 0 01-7.144-2.546A16.176 16.176 0 014.3 10.76a16.428 16.428 0 01-2.551-7.2.874.874 0 01.87-.939H5.24a.876.876 0 01.883.752c.118.896.339 1.784.658 2.638a.875.875 0 01-.196.924L5.48 8.042a.874.874 0 00-.142 1.05 14.855 14.855 0 005.57 5.57.874.874 0 001.05-.142l1.11-1.11c.24-.236.6-.313.918-.193.857.32 1.745.541 2.65.66z" fill="#FF3B30"/></svg>