<svg width="18" height="18" fill="none" xmlns="http://www.w3.org/2000/svg"><path fill-rule="evenodd" clip-rule="evenodd" d="M14.135 9.117c0 2.93-2.306 5.304-5.148 5.304-2.844 0-5.148-2.375-5.148-5.304 0-.35.033-.69.096-1.02H.473v7.051c0 1.515 1.19 2.742 2.66 2.742h11.709c1.469 0 2.66-1.227 2.66-2.742V8.097H14.04c.06.33.095.67.095 1.02zM14.84.344H3.132C1.66.344.47 1.571.47 3.084v2.972h4.31c.933-1.357 2.468-2.244 4.206-2.244 1.736 0 3.27.886 4.204 2.244h4.31V3.085c0-1.513-1.192-2.741-2.661-2.741zm1.3 3.387c0 .27-.212.489-.474.489H14.24a.484.484 0 01-.475-.49V2.262c0-.27.214-.49.475-.49h1.426c.26 0 .475.22.475.49v1.47zm-3.986 5.386c0-1.803-1.418-3.265-3.168-3.265-1.75 0-3.168 1.462-3.168 3.265 0 1.803 1.418 3.264 3.168 3.264 1.75 0 3.168-1.46 3.168-3.264z" fill="#D1D1D6"/></svg>