<svg width="20" height="20" fill="none" xmlns="http://www.w3.org/2000/svg"><path fill-rule="evenodd" clip-rule="evenodd" d="M11.44 11.118c-.305-.183-.729-.183-1.073-.183h-1.13v2.4h1.038c.384 0 .873.027 1.204-.212.304-.21.477-.624.477-1.018 0-.367-.212-.804-.516-.987zm-.426-2.05c.252-.196.384-.548.384-.873 0-.352-.159-.69-.45-.872-.304-.184-.86-.142-1.217-.142h-.493v2.113h.651c.371 0 .807.028 1.125-.225zM16.58.325H4.252C2.406.324.91 1.865.91 3.767v12.7c0 1.902 1.496 3.443 3.342 3.443H16.58c1.845 0 3.342-1.541 3.342-3.444V3.768c0-1.902-1.497-3.443-3.342-3.443zm-5.647 14.798H7.048V5.465h4.243c1.23 0 2.363.806 2.363 2.227 0 1.099-.596 1.85-1.354 2.084v.028c1.125.239 1.928.87 1.928 2.387.001 1.408-.928 2.931-3.296 2.931z" fill="#D1D1D6"/></svg>