<svg width="160" height="50" fill="none" xmlns="http://www.w3.org/2000/svg"><path d="M57.39 9.22h6.661v23.606h14.435v5.486H57.39V9.22zm34.733 29.424c-2.33 0-4.428-.485-6.292-1.454-1.837-.998-3.276-2.37-4.318-4.115-1.041-1.745-1.562-3.726-1.562-5.943 0-2.216.52-4.197 1.562-5.942 1.042-1.746 2.481-3.104 4.318-4.073 1.864-.998 3.962-1.496 6.292-1.496 2.331 0 4.414.498 6.251 1.496 1.837.97 3.277 2.327 4.318 4.073 1.042 1.745 1.563 3.726 1.563 5.942 0 2.217-.521 4.198-1.563 5.943-1.041 1.746-2.481 3.117-4.318 4.115-1.837.97-3.92 1.454-6.25 1.454zm0-5.32c1.645 0 2.989-.553 4.03-1.662 1.07-1.136 1.604-2.646 1.604-4.53 0-1.884-.534-3.38-1.603-4.488-1.042-1.136-2.386-1.704-4.03-1.704-1.646 0-3.003.568-4.072 1.704-1.07 1.108-1.604 2.605-1.604 4.488 0 1.884.535 3.394 1.604 4.53 1.07 1.109 2.426 1.663 4.071 1.663zm39.244-17.371v18.618c0 4.1-1.055 7.148-3.166 9.143-2.111 1.995-5.196 2.992-9.253 2.992-2.139 0-4.168-.263-6.087-.79-1.919-.526-3.509-1.287-4.77-2.285l2.549-4.654c.933.775 2.112 1.385 3.537 1.828a13.57 13.57 0 004.277.707c2.221 0 3.852-.513 4.894-1.538 1.069-.997 1.604-2.521 1.604-4.571v-.956c-1.672 1.856-4.003 2.784-6.991 2.784-2.029 0-3.893-.443-5.593-1.33a10.425 10.425 0 01-3.989-3.823c-.987-1.635-1.481-3.519-1.481-5.652s.494-4.017 1.481-5.652a10.12 10.12 0 013.989-3.782c1.7-.914 3.564-1.371 5.593-1.371 3.207 0 5.648 1.066 7.32 3.2v-2.868h6.086zm-12.131 15.959c1.7 0 3.084-.499 4.153-1.496 1.097-1.026 1.645-2.355 1.645-3.99 0-1.635-.548-2.95-1.645-3.948-1.069-1.025-2.453-1.538-4.153-1.538-1.7 0-3.098.513-4.195 1.538-1.097.997-1.645 2.313-1.645 3.948 0 1.635.548 2.964 1.645 3.99 1.097.997 2.495 1.496 4.195 1.496zm28.63 6.732c-2.33 0-4.428-.485-6.292-1.454-1.837-.998-3.276-2.37-4.318-4.115-1.041-1.745-1.562-3.726-1.562-5.943 0-2.216.521-4.197 1.562-5.942 1.042-1.746 2.481-3.104 4.318-4.073 1.864-.998 3.962-1.496 6.292-1.496 2.331 0 4.414.498 6.251 1.496 1.837.97 3.277 2.327 4.318 4.073 1.042 1.745 1.563 3.726 1.563 5.942 0 2.217-.521 4.198-1.563 5.943-1.041 1.746-2.481 3.117-4.318 4.115-1.837.97-3.92 1.454-6.251 1.454zm0-5.32c1.645 0 2.989-.553 4.031-1.662 1.069-1.136 1.603-2.646 1.603-4.53 0-1.884-.534-3.38-1.603-4.488-1.042-1.136-2.386-1.704-4.031-1.704-1.645 0-3.002.568-4.071 1.704-1.069 1.108-1.604 2.605-1.604 4.488 0 1.884.535 3.394 1.604 4.53 1.069 1.109 2.426 1.663 4.071 1.663zM49.478 25c0 13.807-11.076 25-24.739 25S0 38.807 0 25 11.076 0 24.739 0s24.739 11.193 24.739 25z" fill="#DADADA"/><path d="M14.19 9.553h6.663v23.605h14.434v5.486H14.191V9.554z" fill="#fff"/></svg>