<svg width="160" height="51" viewBox="0 0 160 51" fill="none" xmlns="http://www.w3.org/2000/svg">
<g clip-path="url(#clip0)">
<path d="M57.3892 9.98169H64.0514V33.5869H78.4861V39.0726H57.3892V9.98169Z" fill="white"/>
<path d="M92.1234 39.4051C89.7928 39.4051 87.6955 38.9202 85.8314 37.9505C83.9943 36.9531 82.5549 35.5817 81.5133 33.8363C80.4717 32.0908 79.9506 30.1098 79.9506 27.8934C79.9506 25.677 80.4717 23.696 81.5133 21.9505C82.5549 20.2051 83.9943 18.8475 85.8314 17.8778C87.6955 16.8804 89.7928 16.3817 92.1234 16.3817C94.454 16.3817 96.5372 16.8804 98.3743 17.8778C100.211 18.8475 101.651 20.2051 102.692 21.9505C103.734 23.696 104.255 25.677 104.255 27.8934C104.255 30.1098 103.734 32.0908 102.692 33.8363C101.651 35.5817 100.211 36.9531 98.3743 37.9505C96.5372 38.9202 94.454 39.4051 92.1234 39.4051ZM92.1234 34.0856C93.7684 34.0856 95.112 33.5315 96.1536 32.4233C97.2229 31.2874 97.7575 29.7774 97.7575 27.8934C97.7575 26.0094 97.2229 24.5133 96.1536 23.4051C95.112 22.2692 93.7684 21.7012 92.1234 21.7012C90.4784 21.7012 89.1213 22.2692 88.0521 23.4051C86.9829 24.5133 86.4482 26.0094 86.4482 27.8934C86.4482 29.7774 86.9829 31.2874 88.0521 32.4233C89.1213 33.5315 90.4784 34.0856 92.1234 34.0856Z" fill="white"/>
<path d="M131.367 16.7142V35.3324C131.367 39.4328 130.312 42.4804 128.201 44.4752C126.09 46.47 123.005 47.4674 118.948 47.4674C116.809 47.4674 114.78 47.2042 112.861 46.6778C110.942 46.1514 109.352 45.3895 108.091 44.3921L110.64 39.7376C111.573 40.5133 112.752 41.1228 114.177 41.5661C115.603 42.0371 117.029 42.2726 118.454 42.2726C120.675 42.2726 122.306 41.7601 123.348 40.735C124.417 39.7376 124.952 38.2137 124.952 36.1635V35.2077C123.28 37.064 120.949 37.9921 117.961 37.9921C115.932 37.9921 114.068 37.5488 112.368 36.6622C110.696 35.7479 109.366 34.4735 108.379 32.8389C107.392 31.2042 106.898 29.3202 106.898 27.1869C106.898 25.0536 107.392 23.1696 108.379 21.535C109.366 19.9004 110.696 18.6397 112.368 17.7531C114.068 16.8389 115.932 16.3817 117.961 16.3817C121.168 16.3817 123.609 17.4484 125.281 19.5817V16.7142H131.367ZM119.236 32.6726C120.936 32.6726 122.32 32.1739 123.389 31.1765C124.486 30.1514 125.034 28.8215 125.034 27.1869C125.034 25.5523 124.486 24.2363 123.389 23.2389C122.32 22.2137 120.936 21.7012 119.236 21.7012C117.536 21.7012 116.138 22.2137 115.041 23.2389C113.944 24.2363 113.396 25.5523 113.396 27.1869C113.396 28.8215 113.944 30.1514 115.041 31.1765C116.138 32.1739 117.536 32.6726 119.236 32.6726Z" fill="white"/>
<path d="M147.866 39.4051C145.536 39.4051 143.438 38.9202 141.574 37.9505C139.737 36.9531 138.298 35.5817 137.256 33.8363C136.215 32.0908 135.694 30.1098 135.694 27.8934C135.694 25.677 136.215 23.696 137.256 21.9505C138.298 20.2051 139.737 18.8475 141.574 17.8778C143.438 16.8804 145.536 16.3817 147.866 16.3817C150.197 16.3817 152.28 16.8804 154.117 17.8778C155.954 18.8475 157.394 20.2051 158.435 21.9505C159.477 23.696 159.998 25.677 159.998 27.8934C159.998 30.1098 159.477 32.0908 158.435 33.8363C157.394 35.5817 155.954 36.9531 154.117 37.9505C152.28 38.9202 150.197 39.4051 147.866 39.4051ZM147.866 34.0856C149.511 34.0856 150.855 33.5315 151.897 32.4233C152.966 31.2874 153.5 29.7774 153.5 27.8934C153.5 26.0094 152.966 24.5133 151.897 23.4051C150.855 22.2692 149.511 21.7012 147.866 21.7012C146.221 21.7012 144.864 22.2692 143.795 23.4051C142.726 24.5133 142.191 26.0094 142.191 27.8934C142.191 29.7774 142.726 31.2874 143.795 32.4233C144.864 33.5315 146.221 34.0856 147.866 34.0856Z" fill="white"/>
<path d="M49.4779 25.7609C49.4779 39.5681 38.4019 50.7609 24.739 50.7609C11.076 50.7609 0 39.5681 0 25.7609C0 11.9538 11.076 0.760925 24.739 0.760925C38.4019 0.760925 49.4779 11.9538 49.4779 25.7609Z" fill="white"/>
<path d="M14.1905 10.3141H20.8527V33.9193H35.2874V39.4051H14.1905V10.3141Z" fill="#103D97"/>
</g>
<defs>
<clipPath id="clip0">
<rect width="160" height="50" fill="white" transform="translate(0 0.760925)"/>
</clipPath>
</defs>
</svg>
